<svg xmlns="http://www.w3.org/2000/svg" width="300.398" height="328.658" viewBox="0 0 300.398 328.658">
  <path id="Path_63771" data-name="Path 63771" d="M373.027,116.129a115.952,115.952,0,0,0-231.589-.788,34.7,34.7,0,0,0-31.452,34.495V157.7a26.628,26.628,0,0,0,0,42.722,36.852,36.852,0,0,0,.786,6.342c-3.356,27.731,3.721,76.8,83.871,103.006v.735a23.686,23.686,0,1,0,1.676-8.492c-62.167-20.549-76.844-55.146-78.21-80.672a34.694,34.694,0,0,0,26.21,12.213h1.048A34.7,34.7,0,0,0,180.016,198.9V149.84A34.7,34.7,0,0,0,149.14,115.4a108.09,108.09,0,0,1,215.761,0h-.943a34.7,34.7,0,0,0-34.651,34.648V198.9a34.7,34.7,0,0,0,34.651,34.649h1.048A34.7,34.7,0,0,0,399.655,198.9V149.84a34.705,34.705,0,0,0-26.629-33.708Zm-263.2,72.812a18.773,18.773,0,0,1,0-19.814Z" transform="translate(-99.257 -5.806)" fill="#6666ca"/>
</svg>
