<svg xmlns="http://www.w3.org/2000/svg" width="152.097" height="152.097" viewBox="0 0 152.097 152.097">
  <path id="whatsapp" d="M129.317,54.1A75.394,75.394,0,0,0,10.694,145.055L0,184.1l39.96-10.491a75.14,75.14,0,0,0,36.021,9.167h.034c41.521,0,76.083-33.814,76.083-75.37C152.1,87.271,143.542,68.361,129.317,54.1Zm-53.3,115.974A62.534,62.534,0,0,1,44.1,161.351l-2.275-1.358-23.7,6.213,6.315-23.12-1.494-2.377A62.651,62.651,0,0,1,120.32,63.1c11.815,11.849,19.08,27.568,19.046,44.305C139.366,141.965,110.542,170.076,76.015,170.076Zm34.358-46.919c-1.867-.951-11.136-5.5-12.867-6.111-1.731-.645-2.988-.951-4.244.951s-4.855,6.111-5.975,7.4c-1.086,1.256-2.207,1.426-4.074.475-11.068-5.534-18.333-9.88-25.632-22.407-1.935-3.327,1.935-3.089,5.534-10.287a3.49,3.49,0,0,0-.17-3.293c-.475-.951-4.244-10.219-5.806-13.988-1.528-3.667-3.089-3.157-4.244-3.225-1.086-.068-2.343-.068-3.6-.068a6.976,6.976,0,0,0-5.025,2.343,21.162,21.162,0,0,0-6.586,15.719c0,9.268,6.756,18.231,7.673,19.487.951,1.256,13.275,20.268,32.185,28.45,11.951,5.16,16.636,5.6,22.611,4.719,3.633-.543,11.136-4.549,12.7-8.963s1.562-8.182,1.086-8.963C113.5,124.549,112.24,124.073,110.372,123.157Z" transform="translate(0 -32)" fill="#1abc1a" opacity="0.08"/>
</svg>
